{"title":"Khwaishein 1080p Full HD - Arijit Singh, Armaan Malik - Calendar","uid":12401982,"size":21138286,"categoryP":"video","categoryS":"music_videos","magnet":"?xt=urn:btih:c05fe452b144a377626d63f93bd2badc89cf01e0&amp;dn=Khwaishein+1080p+Full+HD+-+Arijit+Singh%2C+Armaan+Malik+-+Calendar&amp;tr=udp%3A%2F%2Ftracker.openbittorrent.com%3A80&amp;tr=udp%3A%2F%2Fopen.demonii.com%3A1337&amp;tr=udp%3A%2F%2Ftracker.coppersurfer.tk%3A6969&amp;tr=udp%3A%2F%2Fexodus.desync.com%3A6969","seeders":0,"leechers":1,"uploader":"Aainul","files":5,"time":1442040473,"description":"Khwaishein 1080p Full HD - Arijit Singh, Armaan Malik - Calendar Girls - Team truHD HEVC\n\nSource: WEB-DL\n\nEncoder: truHD HEVC Encoding Team\n\nEncoded File Info:\n\nGeneral\n\nFormat                                   : MPEG-4\nFormat profile                           : Base Media\nCodec ID                                 : iso4\nFile size                                : 19.9 MiB\nDuration                                 : 2mn 13s\nOverall bit rate                         : 1 253 Kbps\nEncoded date                             : UTC 2015-09-07 12:22:40\nTagged date                              : UTC 2015-09-07 12:22:40\n\nVideo\nID                                       : 1\nFormat                                   : HEVC\nFormat/Info                              : High Efficiency Video Coding\nCodec ID                                 : hvc1\nCodec ID/Info                            : High Efficiency Video Coding\nDuration                                 : 2mn 13s\nBit rate                                 : 1 059 Kbps\nMaximum bit rate                         : 3 323 Kbps\nWidth                                    : 1 920 pixels\nHeight                                   : 1 080 pixels\nDisplay aspect ratio                     : 16:9\nFrame rate mode                          : Constant\nFrame rate                               : 25.000 fps\nBits/(Pixel*Frame)                       : 0.020\nStream size                              : 16.8 MiB (84%)\nTitle                                    : Video\nEncoded date                             : UTC 2015-09-07 12:22:40\nTagged date                              : UTC 2015-09-07 12:22:41\n\nAudio\nID                                       : 2\nFormat                                   : AC-3\nFormat/Info                              : Audio Coding 3\nMode extension                           : CM (complete main)\nFormat settings, Endianness              : Big\nCodec ID                                 : ac-3\nDuration                                 : 2mn 13s\nBit rate mode                            : Constant\nBit rate                                 : 192 Kbps\nMaximum bit rate                         : 203 Kbps\nChannel(s)                               : 6 channels\nChannel positions                        : Front: L C R, Side: L R, LFE\nSampling rate                            : 48.0 KHz\nBit depth                                : 16 bits\nCompression mode                         : Lossy\nStream size                              : 3.05 MiB (15%)\nTitle                                    :  \nEncoded date                             : UTC 2015-09-07 12:22:41\nTagged date                              : UTC 2015-09-07 12:22:41\n\n\nScreenShots:\n &lt;a href=&quot;\nhttp://i.imgur.com/LxWniS2.jpg&quot; rel=&quot;nofollow&quot; target=&quot;_NEW&quot;&gt;\nhttp://i.imgur.com/LxWniS2.jpg&lt;/a&gt;\n\nLike Us On FB And Request Accepted\n\nKickAssTorrents:    &lt;a href=&quot;\nhttps://kat.cr/user/Aainul/&quot; rel=&quot;nofollow&quot; target=&quot;_NEW&quot;&gt;\nhttps://kat.cr/user/Aainul/&lt;/a&gt;\nGloTorrents:    &lt;a href=&quot;\nhttps://glodls.to/user/Aainul&quot; rel=&quot;nofollow&quot; target=&quot;_NEW&quot;&gt;\nhttps://glodls.to/user/Aainul&lt;/a&gt;\nThePirateBay:    &lt;a href=&quot;\nhttps://thepiratebay.vg/user/Aainul/&quot; rel=&quot;nofollow&quot; target=&quot;_NEW&quot;&gt;\nhttps://thepiratebay.vg/user/Aainul/&lt;/a&gt;\n1337x Torrents:    &lt;a href=&quot;\nhttp://1337.to/user/Aainul/&quot; rel=&quot;nofollow&quot; target=&quot;_NEW&quot;&gt;\nhttp://1337.to/user/Aainul/&lt;/a&gt;\n\n\nNote: All Videos Uploaded By Me Are For Review Purpose. If You Like IT, Google IT And Buy IT - Thanks\n\n\nKing Regards\ntruHD HEVC Team\n\nShare Among Friends And Relatives","torrent":{"xt":"urn:btih:c05fe452b144a377626d63f93bd2badc89cf01e0","amp;dn":"Khwaishein+1080p+Full+HD+-+Arijit+Singh%2C+Armaan+Malik+-+Calendar","amp;tr":["udp%3A%2F%2Ftracker.openbittorrent.com%3A80","udp%3A%2F%2Fopen.demonii.com%3A1337","udp%3A%2F%2Ftracker.coppersurfer.tk%3A6969","udp%3A%2F%2Fexodus.desync.com%3A6969"],"infoHash":"c05fe452b144a377626d63f93bd2badc89cf01e0","infoHashBuffer":{"type":"Buffer","data":[192,95,228,82,177,68,163,119,98,109,99,249,59,210,186,220,137,207,1,224]},"announce":[],"urlList":[]}}